<mxfile host="65bd71144e">
    <diagram id="R2lEEEUBdFMjLlhIrx00" name="Page-1">
        <mxGraphModel dx="990" dy="574" grid="1" gridSize="10" guides="1" tooltips="1" connect="1" arrows="1" fold="1" page="1" pageScale="1" pageWidth="850" pageHeight="1100" math="0" shadow="0" extFonts="Permanent Marker^https://fonts.googleapis.com/css?family=Permanent+Marker">
            <root>
                <mxCell id="0"/>
                <mxCell id="1" parent="0"/>
                <mxCell id="_aVbSw46zG1tApkILwOk-1" value="Produto" style="whiteSpace=wrap;html=1;align=center;" parent="1" vertex="1">
                    <mxGeometry x="360" y="150" width="100" height="40" as="geometry"/>
                </mxCell>
                <mxCell id="_aVbSw46zG1tApkILwOk-2" value="Cliente" style="whiteSpace=wrap;html=1;align=center;" parent="1" vertex="1">
                    <mxGeometry x="40" y="380" width="100" height="40" as="geometry"/>
                </mxCell>
                <mxCell id="_aVbSw46zG1tApkILwOk-3" value="Estoque" style="whiteSpace=wrap;html=1;align=center;" parent="1" vertex="1">
                    <mxGeometry x="720" y="160" width="100" height="40" as="geometry"/>
                </mxCell>
                <mxCell id="_aVbSw46zG1tApkILwOk-5" value="&lt;div&gt;Pedido&lt;/div&gt;" style="whiteSpace=wrap;html=1;align=center;" parent="1" vertex="1">
                    <mxGeometry x="370" y="380" width="100" height="40" as="geometry"/>
                </mxCell>
                <mxCell id="_aVbSw46zG1tApkILwOk-6" value="&lt;div&gt;Fornecedor&lt;/div&gt;" style="whiteSpace=wrap;html=1;align=center;" parent="1" vertex="1">
                    <mxGeometry x="30" y="150" width="100" height="40" as="geometry"/>
                </mxCell>
                <mxCell id="_aVbSw46zG1tApkILwOk-8" value="Distribui" style="shape=rhombus;perimeter=rhombusPerimeter;whiteSpace=wrap;html=1;align=center;" parent="1" vertex="1">
                    <mxGeometry x="180" y="90" width="120" height="60" as="geometry"/>
                </mxCell>
                <mxCell id="_aVbSw46zG1tApkILwOk-21" value="&lt;div&gt;Tem&lt;/div&gt;" style="shape=rhombus;perimeter=rhombusPerimeter;whiteSpace=wrap;html=1;align=center;" parent="1" vertex="1">
                    <mxGeometry x="550" y="150" width="120" height="60" as="geometry"/>
                </mxCell>
                <mxCell id="_aVbSw46zG1tApkILwOk-25" value="Tem" style="shape=rhombus;perimeter=rhombusPerimeter;whiteSpace=wrap;html=1;align=center;" parent="1" vertex="1">
                    <mxGeometry x="360" y="250" width="120" height="60" as="geometry"/>
                </mxCell>
                <mxCell id="_aVbSw46zG1tApkILwOk-29" value="Faz" style="shape=rhombus;perimeter=rhombusPerimeter;whiteSpace=wrap;html=1;align=center;" parent="1" vertex="1">
                    <mxGeometry x="200" y="370" width="120" height="60" as="geometry"/>
                </mxCell>
                <mxCell id="_aVbSw46zG1tApkILwOk-32" value="Terceiro - Vendedor" style="whiteSpace=wrap;html=1;align=center;" parent="1" vertex="1">
                    <mxGeometry x="710" y="260" width="100" height="40" as="geometry"/>
                </mxCell>
                <mxCell id="_aVbSw46zG1tApkILwOk-33" value="Vende" style="shape=rhombus;perimeter=rhombusPerimeter;whiteSpace=wrap;html=1;align=center;" parent="1" vertex="1">
                    <mxGeometry x="550" y="250" width="120" height="60" as="geometry"/>
                </mxCell>
                <mxCell id="_aVbSw46zG1tApkILwOk-47" style="edgeStyle=none;rounded=0;orthogonalLoop=1;jettySize=auto;html=1;exitX=0.5;exitY=0;exitDx=0;exitDy=0;entryX=0.5;entryY=1;entryDx=0;entryDy=0;endArrow=none;endFill=0;" parent="1" source="20" target="_aVbSw46zG1tApkILwOk-2" edge="1">
                    <mxGeometry relative="1" as="geometry">
                        <mxPoint x="150" y="530" as="sourcePoint"/>
                    </mxGeometry>
                </mxCell>
                <mxCell id="_aVbSw46zG1tApkILwOk-46" style="edgeStyle=none;rounded=0;orthogonalLoop=1;jettySize=auto;html=1;exitX=0.5;exitY=0;exitDx=0;exitDy=0;entryX=0.5;entryY=1;entryDx=0;entryDy=0;endArrow=none;endFill=0;" parent="1" source="_aVbSw46zG1tApkILwOk-44" target="_aVbSw46zG1tApkILwOk-2" edge="1">
                    <mxGeometry relative="1" as="geometry"/>
                </mxCell>
                <mxCell id="_aVbSw46zG1tApkILwOk-44" value="&lt;div&gt;Nome&lt;/div&gt;" style="ellipse;whiteSpace=wrap;html=1;align=center;" parent="1" vertex="1">
                    <mxGeometry x="20" y="480" width="100" height="40" as="geometry"/>
                </mxCell>
                <mxCell id="_aVbSw46zG1tApkILwOk-49" style="edgeStyle=none;rounded=0;orthogonalLoop=1;jettySize=auto;html=1;exitX=0.5;exitY=0;exitDx=0;exitDy=0;entryX=0.5;entryY=1;entryDx=0;entryDy=0;endArrow=none;endFill=0;" parent="1" source="_aVbSw46zG1tApkILwOk-48" target="_aVbSw46zG1tApkILwOk-2" edge="1">
                    <mxGeometry relative="1" as="geometry"/>
                </mxCell>
                <mxCell id="_aVbSw46zG1tApkILwOk-48" value="Endereço" style="ellipse;whiteSpace=wrap;html=1;align=center;" parent="1" vertex="1">
                    <mxGeometry x="160" y="490" width="100" height="40" as="geometry"/>
                </mxCell>
                <mxCell id="_aVbSw46zG1tApkILwOk-52" style="edgeStyle=none;rounded=0;orthogonalLoop=1;jettySize=auto;html=1;exitX=0.5;exitY=0;exitDx=0;exitDy=0;entryX=0.5;entryY=1;entryDx=0;entryDy=0;endArrow=none;endFill=0;" parent="1" source="_aVbSw46zG1tApkILwOk-50" target="_aVbSw46zG1tApkILwOk-5" edge="1">
                    <mxGeometry relative="1" as="geometry"/>
                </mxCell>
                <mxCell id="_aVbSw46zG1tApkILwOk-50" value="Status" style="ellipse;whiteSpace=wrap;html=1;align=center;" parent="1" vertex="1">
                    <mxGeometry x="300" y="620" width="100" height="40" as="geometry"/>
                </mxCell>
                <mxCell id="_aVbSw46zG1tApkILwOk-53" style="edgeStyle=none;rounded=0;orthogonalLoop=1;jettySize=auto;html=1;exitX=0.5;exitY=0;exitDx=0;exitDy=0;entryX=0.5;entryY=1;entryDx=0;entryDy=0;endArrow=none;endFill=0;" parent="1" source="_aVbSw46zG1tApkILwOk-51" target="_aVbSw46zG1tApkILwOk-5" edge="1">
                    <mxGeometry relative="1" as="geometry"/>
                </mxCell>
                <mxCell id="_aVbSw46zG1tApkILwOk-51" value="Descrição" style="ellipse;whiteSpace=wrap;html=1;align=center;" parent="1" vertex="1">
                    <mxGeometry x="380" y="550" width="100" height="40" as="geometry"/>
                </mxCell>
                <mxCell id="_aVbSw46zG1tApkILwOk-57" style="edgeStyle=none;rounded=0;orthogonalLoop=1;jettySize=auto;html=1;exitX=0.5;exitY=1;exitDx=0;exitDy=0;entryX=0.5;entryY=0;entryDx=0;entryDy=0;endArrow=none;endFill=0;" parent="1" source="_aVbSw46zG1tApkILwOk-54" target="_aVbSw46zG1tApkILwOk-1" edge="1">
                    <mxGeometry relative="1" as="geometry"/>
                </mxCell>
                <mxCell id="_aVbSw46zG1tApkILwOk-54" value="Categoria" style="ellipse;whiteSpace=wrap;html=1;align=center;" parent="1" vertex="1">
                    <mxGeometry x="325" y="50" width="100" height="40" as="geometry"/>
                </mxCell>
                <mxCell id="_aVbSw46zG1tApkILwOk-58" style="edgeStyle=none;rounded=0;orthogonalLoop=1;jettySize=auto;html=1;exitX=0.5;exitY=1;exitDx=0;exitDy=0;endArrow=none;endFill=0;" parent="1" source="_aVbSw46zG1tApkILwOk-55" edge="1">
                    <mxGeometry relative="1" as="geometry">
                        <mxPoint x="410" y="150" as="targetPoint"/>
                    </mxGeometry>
                </mxCell>
                <mxCell id="_aVbSw46zG1tApkILwOk-55" value="Descrição" style="ellipse;whiteSpace=wrap;html=1;align=center;" parent="1" vertex="1">
                    <mxGeometry x="410" y="10" width="100" height="40" as="geometry"/>
                </mxCell>
                <mxCell id="_aVbSw46zG1tApkILwOk-59" style="edgeStyle=none;rounded=0;orthogonalLoop=1;jettySize=auto;html=1;exitX=0.5;exitY=1;exitDx=0;exitDy=0;entryX=0.5;entryY=0;entryDx=0;entryDy=0;endArrow=none;endFill=0;" parent="1" source="_aVbSw46zG1tApkILwOk-56" target="_aVbSw46zG1tApkILwOk-1" edge="1">
                    <mxGeometry relative="1" as="geometry"/>
                </mxCell>
                <mxCell id="_aVbSw46zG1tApkILwOk-56" value="Valor" style="ellipse;whiteSpace=wrap;html=1;align=center;" parent="1" vertex="1">
                    <mxGeometry x="450" y="70" width="100" height="40" as="geometry"/>
                </mxCell>
                <mxCell id="_aVbSw46zG1tApkILwOk-62" style="edgeStyle=none;rounded=0;orthogonalLoop=1;jettySize=auto;html=1;exitX=0.5;exitY=1;exitDx=0;exitDy=0;entryX=0.5;entryY=0;entryDx=0;entryDy=0;endArrow=none;endFill=0;" parent="1" source="_aVbSw46zG1tApkILwOk-60" target="_aVbSw46zG1tApkILwOk-6" edge="1">
                    <mxGeometry relative="1" as="geometry"/>
                </mxCell>
                <mxCell id="_aVbSw46zG1tApkILwOk-60" value="Razão social" style="ellipse;whiteSpace=wrap;html=1;align=center;" parent="1" vertex="1">
                    <mxGeometry x="10" y="50" width="100" height="40" as="geometry"/>
                </mxCell>
                <mxCell id="_aVbSw46zG1tApkILwOk-63" style="edgeStyle=none;rounded=0;orthogonalLoop=1;jettySize=auto;html=1;exitX=0.5;exitY=1;exitDx=0;exitDy=0;entryX=0.5;entryY=0;entryDx=0;entryDy=0;endArrow=none;endFill=0;" parent="1" source="2" target="_aVbSw46zG1tApkILwOk-6" edge="1">
                    <mxGeometry relative="1" as="geometry">
                        <mxPoint x="150" y="60" as="sourcePoint"/>
                    </mxGeometry>
                </mxCell>
                <mxCell id="_aVbSw46zG1tApkILwOk-65" style="edgeStyle=none;rounded=0;orthogonalLoop=1;jettySize=auto;html=1;exitX=0.5;exitY=1;exitDx=0;exitDy=0;entryX=0.5;entryY=0;entryDx=0;entryDy=0;endArrow=none;endFill=0;" parent="1" source="_aVbSw46zG1tApkILwOk-64" target="_aVbSw46zG1tApkILwOk-21" edge="1">
                    <mxGeometry relative="1" as="geometry"/>
                </mxCell>
                <mxCell id="_aVbSw46zG1tApkILwOk-64" value="Quantidade" style="ellipse;whiteSpace=wrap;html=1;align=center;" parent="1" vertex="1">
                    <mxGeometry x="560" y="40" width="100" height="40" as="geometry"/>
                </mxCell>
                <mxCell id="_aVbSw46zG1tApkILwOk-67" style="edgeStyle=none;rounded=0;orthogonalLoop=1;jettySize=auto;html=1;exitX=0.5;exitY=1;exitDx=0;exitDy=0;entryX=0.5;entryY=0;entryDx=0;entryDy=0;endArrow=none;endFill=0;" parent="1" source="_aVbSw46zG1tApkILwOk-66" target="_aVbSw46zG1tApkILwOk-3" edge="1">
                    <mxGeometry relative="1" as="geometry"/>
                </mxCell>
                <mxCell id="_aVbSw46zG1tApkILwOk-66" value="Local" style="ellipse;whiteSpace=wrap;html=1;align=center;" parent="1" vertex="1">
                    <mxGeometry x="720" y="60" width="100" height="40" as="geometry"/>
                </mxCell>
                <mxCell id="_aVbSw46zG1tApkILwOk-71" style="edgeStyle=none;rounded=0;orthogonalLoop=1;jettySize=auto;html=1;exitX=1;exitY=0.5;exitDx=0;exitDy=0;endArrow=none;endFill=0;" parent="1" source="_aVbSw46zG1tApkILwOk-70" edge="1">
                    <mxGeometry relative="1" as="geometry">
                        <mxPoint x="360" y="280" as="targetPoint"/>
                    </mxGeometry>
                </mxCell>
                <mxCell id="_aVbSw46zG1tApkILwOk-70" value="Quantidade" style="ellipse;whiteSpace=wrap;html=1;align=center;" parent="1" vertex="1">
                    <mxGeometry x="220" y="260" width="100" height="40" as="geometry"/>
                </mxCell>
                <mxCell id="_aVbSw46zG1tApkILwOk-73" style="edgeStyle=none;rounded=0;orthogonalLoop=1;jettySize=auto;html=1;exitX=0.5;exitY=0;exitDx=0;exitDy=0;endArrow=none;endFill=0;" parent="1" source="_aVbSw46zG1tApkILwOk-72" edge="1">
                    <mxGeometry relative="1" as="geometry">
                        <mxPoint x="420" y="420" as="targetPoint"/>
                    </mxGeometry>
                </mxCell>
                <mxCell id="_aVbSw46zG1tApkILwOk-72" value="Frete" style="ellipse;whiteSpace=wrap;html=1;align=center;" parent="1" vertex="1">
                    <mxGeometry x="260" y="550" width="100" height="40" as="geometry"/>
                </mxCell>
                <mxCell id="_aVbSw46zG1tApkILwOk-75" style="edgeStyle=none;rounded=0;orthogonalLoop=1;jettySize=auto;html=1;exitX=0.5;exitY=0;exitDx=0;exitDy=0;entryX=0.5;entryY=1;entryDx=0;entryDy=0;endArrow=none;endFill=0;" parent="1" source="_aVbSw46zG1tApkILwOk-74" target="_aVbSw46zG1tApkILwOk-32" edge="1">
                    <mxGeometry relative="1" as="geometry"/>
                </mxCell>
                <mxCell id="_aVbSw46zG1tApkILwOk-74" value="Local" style="ellipse;whiteSpace=wrap;html=1;align=center;" parent="1" vertex="1">
                    <mxGeometry x="600" y="360" width="100" height="40" as="geometry"/>
                </mxCell>
                <mxCell id="_aVbSw46zG1tApkILwOk-77" style="edgeStyle=none;rounded=0;orthogonalLoop=1;jettySize=auto;html=1;exitX=0.5;exitY=0;exitDx=0;exitDy=0;entryX=0.5;entryY=1;entryDx=0;entryDy=0;endArrow=none;endFill=0;" parent="1" source="_aVbSw46zG1tApkILwOk-76" target="_aVbSw46zG1tApkILwOk-32" edge="1">
                    <mxGeometry relative="1" as="geometry"/>
                </mxCell>
                <mxCell id="_aVbSw46zG1tApkILwOk-76" value="Razão social" style="ellipse;whiteSpace=wrap;html=1;align=center;" parent="1" vertex="1">
                    <mxGeometry x="490" y="340" width="100" height="40" as="geometry"/>
                </mxCell>
                <mxCell id="_aVbSw46zG1tApkILwOk-79" style="edgeStyle=none;rounded=0;orthogonalLoop=1;jettySize=auto;html=1;exitX=0.5;exitY=0;exitDx=0;exitDy=0;entryX=0.5;entryY=1;entryDx=0;entryDy=0;endArrow=none;endFill=0;" parent="1" source="_aVbSw46zG1tApkILwOk-78" target="_aVbSw46zG1tApkILwOk-32" edge="1">
                    <mxGeometry relative="1" as="geometry"/>
                </mxCell>
                <mxCell id="_aVbSw46zG1tApkILwOk-78" value="Quantidade" style="ellipse;whiteSpace=wrap;html=1;align=center;" parent="1" vertex="1">
                    <mxGeometry x="700" y="410" width="100" height="40" as="geometry"/>
                </mxCell>
                <mxCell id="_aVbSw46zG1tApkILwOk-80" value="Tem" style="shape=rhombus;perimeter=rhombusPerimeter;whiteSpace=wrap;html=1;align=center;" parent="1" vertex="1">
                    <mxGeometry x="650" y="530" width="120" height="60" as="geometry"/>
                </mxCell>
                <mxCell id="_aVbSw46zG1tApkILwOk-85" style="edgeStyle=none;rounded=0;orthogonalLoop=1;jettySize=auto;html=1;exitX=0.5;exitY=1;exitDx=0;exitDy=0;entryX=0.5;entryY=0;entryDx=0;entryDy=0;endArrow=none;endFill=0;" parent="1" source="_aVbSw46zG1tApkILwOk-82" target="_aVbSw46zG1tApkILwOk-84" edge="1">
                    <mxGeometry relative="1" as="geometry"/>
                </mxCell>
                <mxCell id="32" style="edgeStyle=none;rounded=0;html=1;exitX=0.5;exitY=1;exitDx=0;exitDy=0;entryX=0.5;entryY=0;entryDx=0;entryDy=0;endArrow=none;endFill=0;" edge="1" parent="1" source="_aVbSw46zG1tApkILwOk-82" target="30">
                    <mxGeometry relative="1" as="geometry"/>
                </mxCell>
                <mxCell id="_aVbSw46zG1tApkILwOk-82" value="&lt;div&gt;Entrega&lt;/div&gt;" style="shape=ext;margin=3;double=1;whiteSpace=wrap;html=1;align=center;" parent="1" vertex="1">
                    <mxGeometry x="660" y="630" width="100" height="40" as="geometry"/>
                </mxCell>
                <mxCell id="_aVbSw46zG1tApkILwOk-84" value="&lt;div&gt;Status&lt;/div&gt;" style="ellipse;whiteSpace=wrap;html=1;align=center;" parent="1" vertex="1">
                    <mxGeometry x="620" y="700" width="100" height="40" as="geometry"/>
                </mxCell>
                <mxCell id="_aVbSw46zG1tApkILwOk-87" style="edgeStyle=none;rounded=0;orthogonalLoop=1;jettySize=auto;html=1;exitX=0.5;exitY=0;exitDx=0;exitDy=0;endArrow=none;endFill=0;" parent="1" source="_aVbSw46zG1tApkILwOk-86" edge="1">
                    <mxGeometry relative="1" as="geometry">
                        <mxPoint x="710" y="670" as="targetPoint"/>
                    </mxGeometry>
                </mxCell>
                <mxCell id="_aVbSw46zG1tApkILwOk-86" value="Endereço" style="ellipse;whiteSpace=wrap;html=1;align=center;" parent="1" vertex="1">
                    <mxGeometry x="690" y="770" width="100" height="40" as="geometry"/>
                </mxCell>
                <mxCell id="_aVbSw46zG1tApkILwOk-93" value="Devolve" style="shape=rhombus;perimeter=rhombusPerimeter;whiteSpace=wrap;html=1;align=center;" parent="1" vertex="1">
                    <mxGeometry x="130" y="300" width="120" height="60" as="geometry"/>
                </mxCell>
                <mxCell id="_aVbSw46zG1tApkILwOk-98" style="edgeStyle=none;rounded=0;orthogonalLoop=1;jettySize=auto;html=1;exitX=1;exitY=0.5;exitDx=0;exitDy=0;entryX=0.5;entryY=0;entryDx=0;entryDy=0;endArrow=none;endFill=0;" parent="1" source="_aVbSw46zG1tApkILwOk-97" target="_aVbSw46zG1tApkILwOk-93" edge="1">
                    <mxGeometry relative="1" as="geometry"/>
                </mxCell>
                <mxCell id="_aVbSw46zG1tApkILwOk-97" value="&lt;div&gt;Data&lt;/div&gt;" style="ellipse;whiteSpace=wrap;html=1;align=center;" parent="1" vertex="1">
                    <mxGeometry x="20" y="250" width="100" height="40" as="geometry"/>
                </mxCell>
                <mxCell id="_aVbSw46zG1tApkILwOk-100" style="edgeStyle=none;rounded=0;orthogonalLoop=1;jettySize=auto;html=1;exitX=0.5;exitY=1;exitDx=0;exitDy=0;endArrow=none;endFill=0;" parent="1" source="_aVbSw46zG1tApkILwOk-99" edge="1">
                    <mxGeometry relative="1" as="geometry">
                        <mxPoint x="190" y="300" as="targetPoint"/>
                    </mxGeometry>
                </mxCell>
                <mxCell id="_aVbSw46zG1tApkILwOk-99" value="Motivo" style="ellipse;whiteSpace=wrap;html=1;align=center;" parent="1" vertex="1">
                    <mxGeometry x="90" y="210" width="100" height="40" as="geometry"/>
                </mxCell>
                <mxCell id="_aVbSw46zG1tApkILwOk-101" value="CNPJ" style="ellipse;whiteSpace=wrap;html=1;align=center;" parent="1" vertex="1">
                    <mxGeometry x="20" y="610" width="100" height="40" as="geometry"/>
                </mxCell>
                <mxCell id="_aVbSw46zG1tApkILwOk-103" value="CPF" style="ellipse;whiteSpace=wrap;html=1;align=center;" parent="1" vertex="1">
                    <mxGeometry x="90" y="650" width="100" height="40" as="geometry"/>
                </mxCell>
                <mxCell id="2" value="CNPJ" style="ellipse;whiteSpace=wrap;html=1;align=center;fontStyle=4;" vertex="1" parent="1">
                    <mxGeometry x="100" y="20" width="100" height="40" as="geometry"/>
                </mxCell>
                <mxCell id="3" value="" style="fontSize=12;html=1;endArrow=ERzeroToMany;endFill=1;exitX=1;exitY=0.5;exitDx=0;exitDy=0;entryX=0;entryY=0.5;entryDx=0;entryDy=0;rounded=0;" edge="1" parent="1" source="_aVbSw46zG1tApkILwOk-6" target="_aVbSw46zG1tApkILwOk-8">
                    <mxGeometry width="100" height="100" relative="1" as="geometry">
                        <mxPoint x="150" y="170" as="sourcePoint"/>
                        <mxPoint x="250" y="70" as="targetPoint"/>
                        <Array as="points">
                            <mxPoint x="150" y="170"/>
                            <mxPoint x="150" y="120"/>
                        </Array>
                    </mxGeometry>
                </mxCell>
                <mxCell id="4" value="" style="fontSize=12;html=1;endArrow=ERzeroToMany;endFill=1;exitX=0;exitY=0.5;exitDx=0;exitDy=0;entryX=1;entryY=0.5;entryDx=0;entryDy=0;rounded=0;" edge="1" parent="1" source="_aVbSw46zG1tApkILwOk-1" target="_aVbSw46zG1tApkILwOk-8">
                    <mxGeometry width="100" height="100" relative="1" as="geometry">
                        <mxPoint x="270" y="210" as="sourcePoint"/>
                        <mxPoint x="320" y="160" as="targetPoint"/>
                        <Array as="points">
                            <mxPoint x="330" y="170"/>
                            <mxPoint x="330" y="120"/>
                        </Array>
                    </mxGeometry>
                </mxCell>
                <mxCell id="6" style="edgeStyle=none;rounded=0;html=1;exitX=0.5;exitY=1;exitDx=0;exitDy=0;entryX=0.5;entryY=0;entryDx=0;entryDy=0;endArrow=none;endFill=0;" edge="1" parent="1" source="5" target="_aVbSw46zG1tApkILwOk-1">
                    <mxGeometry relative="1" as="geometry"/>
                </mxCell>
                <mxCell id="5" value="Id" style="ellipse;whiteSpace=wrap;html=1;align=center;fontStyle=4;" vertex="1" parent="1">
                    <mxGeometry x="230" y="20" width="100" height="40" as="geometry"/>
                </mxCell>
                <mxCell id="7" value="" style="edgeStyle=entityRelationEdgeStyle;fontSize=12;html=1;endArrow=ERzeroToOne;endFill=1;rounded=0;exitX=1;exitY=0.5;exitDx=0;exitDy=0;" edge="1" parent="1" source="_aVbSw46zG1tApkILwOk-1" target="_aVbSw46zG1tApkILwOk-21">
                    <mxGeometry width="100" height="100" relative="1" as="geometry">
                        <mxPoint x="450" y="350" as="sourcePoint"/>
                        <mxPoint x="550" y="250" as="targetPoint"/>
                    </mxGeometry>
                </mxCell>
                <mxCell id="8" value="" style="edgeStyle=entityRelationEdgeStyle;fontSize=12;html=1;endArrow=ERzeroToMany;endFill=1;rounded=0;entryX=1;entryY=0.5;entryDx=0;entryDy=0;exitX=0;exitY=0.5;exitDx=0;exitDy=0;" edge="1" parent="1" source="_aVbSw46zG1tApkILwOk-3" target="_aVbSw46zG1tApkILwOk-21">
                    <mxGeometry width="100" height="100" relative="1" as="geometry">
                        <mxPoint x="450" y="350" as="sourcePoint"/>
                        <mxPoint x="550" y="250" as="targetPoint"/>
                    </mxGeometry>
                </mxCell>
                <mxCell id="10" style="edgeStyle=none;rounded=0;html=1;exitX=1;exitY=0;exitDx=0;exitDy=0;endArrow=none;endFill=0;" edge="1" parent="1" source="9">
                    <mxGeometry relative="1" as="geometry">
                        <mxPoint x="760" y="300" as="targetPoint"/>
                    </mxGeometry>
                </mxCell>
                <mxCell id="9" value="CNPJ" style="ellipse;whiteSpace=wrap;html=1;align=center;fontStyle=4;" vertex="1" parent="1">
                    <mxGeometry x="730" y="460" width="100" height="40" as="geometry"/>
                </mxCell>
                <mxCell id="11" value="" style="edgeStyle=entityRelationEdgeStyle;fontSize=12;html=1;endArrow=ERzeroToMany;endFill=1;rounded=0;entryX=1;entryY=0.5;entryDx=0;entryDy=0;exitX=0;exitY=0.5;exitDx=0;exitDy=0;" edge="1" parent="1" source="_aVbSw46zG1tApkILwOk-32" target="_aVbSw46zG1tApkILwOk-33">
                    <mxGeometry width="100" height="100" relative="1" as="geometry">
                        <mxPoint x="450" y="250" as="sourcePoint"/>
                        <mxPoint x="550" y="150" as="targetPoint"/>
                    </mxGeometry>
                </mxCell>
                <mxCell id="12" value="" style="edgeStyle=entityRelationEdgeStyle;fontSize=12;html=1;endArrow=ERoneToMany;rounded=0;entryX=0;entryY=0.5;entryDx=0;entryDy=0;exitX=1;exitY=1;exitDx=0;exitDy=0;" edge="1" parent="1" source="_aVbSw46zG1tApkILwOk-1" target="_aVbSw46zG1tApkILwOk-33">
                    <mxGeometry width="100" height="100" relative="1" as="geometry">
                        <mxPoint x="420" y="190" as="sourcePoint"/>
                        <mxPoint x="550" y="150" as="targetPoint"/>
                    </mxGeometry>
                </mxCell>
                <mxCell id="13" value="" style="fontSize=12;html=1;endArrow=ERzeroToMany;endFill=1;rounded=0;exitX=0.5;exitY=1;exitDx=0;exitDy=0;entryX=0.5;entryY=0;entryDx=0;entryDy=0;" edge="1" parent="1" source="_aVbSw46zG1tApkILwOk-1" target="_aVbSw46zG1tApkILwOk-25">
                    <mxGeometry width="100" height="100" relative="1" as="geometry">
                        <mxPoint x="450" y="450" as="sourcePoint"/>
                        <mxPoint x="550" y="350" as="targetPoint"/>
                    </mxGeometry>
                </mxCell>
                <mxCell id="14" value="" style="fontSize=12;html=1;endArrow=ERoneToMany;rounded=0;exitX=0.5;exitY=0;exitDx=0;exitDy=0;entryX=0.5;entryY=1;entryDx=0;entryDy=0;" edge="1" parent="1" source="_aVbSw46zG1tApkILwOk-5" target="_aVbSw46zG1tApkILwOk-25">
                    <mxGeometry width="100" height="100" relative="1" as="geometry">
                        <mxPoint x="450" y="450" as="sourcePoint"/>
                        <mxPoint x="550" y="350" as="targetPoint"/>
                    </mxGeometry>
                </mxCell>
                <mxCell id="16" value="" style="fontSize=12;html=1;endArrow=ERzeroToOne;endFill=1;rounded=0;exitX=0.5;exitY=0;exitDx=0;exitDy=0;entryX=0;entryY=0.5;entryDx=0;entryDy=0;" edge="1" parent="1" source="_aVbSw46zG1tApkILwOk-2" target="_aVbSw46zG1tApkILwOk-93">
                    <mxGeometry width="100" height="100" relative="1" as="geometry">
                        <mxPoint x="450" y="450" as="sourcePoint"/>
                        <mxPoint x="550" y="350" as="targetPoint"/>
                        <Array as="points">
                            <mxPoint x="90" y="330"/>
                        </Array>
                    </mxGeometry>
                </mxCell>
                <mxCell id="17" value="" style="fontSize=12;html=1;endArrow=ERmandOne;startArrow=ERmandOne;rounded=0;entryX=0.5;entryY=0;entryDx=0;entryDy=0;exitX=1;exitY=0.5;exitDx=0;exitDy=0;" edge="1" parent="1" source="_aVbSw46zG1tApkILwOk-93" target="_aVbSw46zG1tApkILwOk-5">
                    <mxGeometry width="100" height="100" relative="1" as="geometry">
                        <mxPoint x="450" y="450" as="sourcePoint"/>
                        <mxPoint x="550" y="350" as="targetPoint"/>
                        <Array as="points">
                            <mxPoint x="360" y="330"/>
                        </Array>
                    </mxGeometry>
                </mxCell>
                <mxCell id="18" value="" style="edgeStyle=entityRelationEdgeStyle;fontSize=12;html=1;endArrow=ERzeroToMany;endFill=1;rounded=0;exitX=1;exitY=0.5;exitDx=0;exitDy=0;entryX=0;entryY=0.5;entryDx=0;entryDy=0;" edge="1" parent="1" source="_aVbSw46zG1tApkILwOk-2" target="_aVbSw46zG1tApkILwOk-29">
                    <mxGeometry width="100" height="100" relative="1" as="geometry">
                        <mxPoint x="450" y="450" as="sourcePoint"/>
                        <mxPoint x="550" y="350" as="targetPoint"/>
                    </mxGeometry>
                </mxCell>
                <mxCell id="19" value="" style="edgeStyle=entityRelationEdgeStyle;fontSize=12;html=1;endArrow=ERmandOne;startArrow=ERmandOne;rounded=0;exitX=1;exitY=0.5;exitDx=0;exitDy=0;entryX=0;entryY=0.5;entryDx=0;entryDy=0;" edge="1" parent="1" source="_aVbSw46zG1tApkILwOk-29" target="_aVbSw46zG1tApkILwOk-5">
                    <mxGeometry width="100" height="100" relative="1" as="geometry">
                        <mxPoint x="450" y="450" as="sourcePoint"/>
                        <mxPoint x="550" y="350" as="targetPoint"/>
                    </mxGeometry>
                </mxCell>
                <mxCell id="21" style="edgeStyle=none;rounded=0;html=1;exitX=0.5;exitY=1;exitDx=0;exitDy=0;entryX=0.5;entryY=0;entryDx=0;entryDy=0;endArrow=none;endFill=0;" edge="1" parent="1" source="20" target="_aVbSw46zG1tApkILwOk-101">
                    <mxGeometry relative="1" as="geometry"/>
                </mxCell>
                <mxCell id="22" style="edgeStyle=none;rounded=0;html=1;exitX=0.5;exitY=1;exitDx=0;exitDy=0;entryX=0.5;entryY=0;entryDx=0;entryDy=0;endArrow=none;endFill=0;" edge="1" parent="1" source="20" target="_aVbSw46zG1tApkILwOk-103">
                    <mxGeometry relative="1" as="geometry"/>
                </mxCell>
                <mxCell id="20" value="Identificação" style="ellipse;whiteSpace=wrap;html=1;align=center;fontStyle=4;" vertex="1" parent="1">
                    <mxGeometry x="90" y="530" width="100" height="40" as="geometry"/>
                </mxCell>
                <mxCell id="23" value="" style="fontSize=12;html=1;endArrow=ERmandOne;startArrow=ERmandOne;rounded=0;entryX=0.5;entryY=0;entryDx=0;entryDy=0;exitX=1;exitY=0.5;exitDx=0;exitDy=0;" edge="1" parent="1" source="_aVbSw46zG1tApkILwOk-5" target="_aVbSw46zG1tApkILwOk-80">
                    <mxGeometry width="100" height="100" relative="1" as="geometry">
                        <mxPoint x="450" y="650" as="sourcePoint"/>
                        <mxPoint x="550" y="550" as="targetPoint"/>
                        <Array as="points">
                            <mxPoint x="560" y="400"/>
                        </Array>
                    </mxGeometry>
                </mxCell>
                <mxCell id="24" value="" style="fontSize=12;html=1;endArrow=ERmandOne;startArrow=ERmandOne;rounded=0;exitX=0.5;exitY=0;exitDx=0;exitDy=0;entryX=0.5;entryY=1;entryDx=0;entryDy=0;" edge="1" parent="1" source="_aVbSw46zG1tApkILwOk-82" target="_aVbSw46zG1tApkILwOk-80">
                    <mxGeometry width="100" height="100" relative="1" as="geometry">
                        <mxPoint x="600" y="670" as="sourcePoint"/>
                        <mxPoint x="700" y="570" as="targetPoint"/>
                    </mxGeometry>
                </mxCell>
                <mxCell id="25" value="Tem" style="shape=rhombus;perimeter=rhombusPerimeter;whiteSpace=wrap;html=1;align=center;" vertex="1" parent="1">
                    <mxGeometry x="500" y="540" width="120" height="60" as="geometry"/>
                </mxCell>
                <mxCell id="33" style="edgeStyle=none;rounded=0;html=1;exitX=0.5;exitY=1;exitDx=0;exitDy=0;entryX=0.5;entryY=0;entryDx=0;entryDy=0;endArrow=none;endFill=0;" edge="1" parent="1" source="26" target="29">
                    <mxGeometry relative="1" as="geometry"/>
                </mxCell>
                <mxCell id="26" value="&lt;div&gt;Pagamento&lt;/div&gt;" style="shape=ext;margin=3;double=1;whiteSpace=wrap;html=1;align=center;" vertex="1" parent="1">
                    <mxGeometry x="470" y="660" width="100" height="40" as="geometry"/>
                </mxCell>
                <mxCell id="27" value="" style="fontSize=12;html=1;endArrow=ERzeroToMany;endFill=1;rounded=0;exitX=0.75;exitY=1;exitDx=0;exitDy=0;entryX=0.5;entryY=0;entryDx=0;entryDy=0;" edge="1" parent="1" source="_aVbSw46zG1tApkILwOk-5" target="25">
                    <mxGeometry width="100" height="100" relative="1" as="geometry">
                        <mxPoint x="450" y="650" as="sourcePoint"/>
                        <mxPoint x="550" y="550" as="targetPoint"/>
                        <Array as="points">
                            <mxPoint x="450" y="470"/>
                            <mxPoint x="560" y="470"/>
                        </Array>
                    </mxGeometry>
                </mxCell>
                <mxCell id="28" value="" style="fontSize=12;html=1;endArrow=ERmandOne;startArrow=ERmandOne;rounded=0;entryX=0.5;entryY=1;entryDx=0;entryDy=0;exitX=0.5;exitY=0;exitDx=0;exitDy=0;" edge="1" parent="1" source="26" target="25">
                    <mxGeometry width="100" height="100" relative="1" as="geometry">
                        <mxPoint x="450" y="650" as="sourcePoint"/>
                        <mxPoint x="550" y="550" as="targetPoint"/>
                    </mxGeometry>
                </mxCell>
                <mxCell id="29" value="&lt;div&gt;Valor&lt;/div&gt;" style="ellipse;whiteSpace=wrap;html=1;align=center;" vertex="1" parent="1">
                    <mxGeometry x="510" y="730" width="100" height="40" as="geometry"/>
                </mxCell>
                <mxCell id="30" value="Id" style="ellipse;whiteSpace=wrap;html=1;align=center;fontStyle=4;" vertex="1" parent="1">
                    <mxGeometry x="730" y="690" width="100" height="40" as="geometry"/>
                </mxCell>
                <mxCell id="34" style="edgeStyle=none;rounded=0;html=1;exitX=0.5;exitY=0;exitDx=0;exitDy=0;endArrow=none;endFill=0;" edge="1" parent="1" source="31">
                    <mxGeometry relative="1" as="geometry">
                        <mxPoint x="520" y="700" as="targetPoint"/>
                    </mxGeometry>
                </mxCell>
                <mxCell id="31" value="Id" style="ellipse;whiteSpace=wrap;html=1;align=center;fontStyle=4;" vertex="1" parent="1">
                    <mxGeometry x="420" y="770" width="100" height="40" as="geometry"/>
                </mxCell>
                <mxCell id="35" value="Tem" style="shape=rhombus;perimeter=rhombusPerimeter;whiteSpace=wrap;html=1;align=center;" vertex="1" parent="1">
                    <mxGeometry x="280" y="690" width="120" height="60" as="geometry"/>
                </mxCell>
                <mxCell id="36" value="&lt;div&gt;Forma de pagamento&lt;/div&gt;" style="whiteSpace=wrap;html=1;align=center;" vertex="1" parent="1">
                    <mxGeometry x="140" y="770" width="100" height="40" as="geometry"/>
                </mxCell>
                <mxCell id="38" value="" style="edgeStyle=entityRelationEdgeStyle;fontSize=12;html=1;endArrow=ERzeroToMany;startArrow=ERmandOne;rounded=0;exitX=0;exitY=0.5;exitDx=0;exitDy=0;entryX=1;entryY=0.5;entryDx=0;entryDy=0;" edge="1" parent="1" source="26" target="35">
                    <mxGeometry width="100" height="100" relative="1" as="geometry">
                        <mxPoint x="450" y="640" as="sourcePoint"/>
                        <mxPoint x="550" y="540" as="targetPoint"/>
                    </mxGeometry>
                </mxCell>
                <mxCell id="39" value="" style="fontSize=12;html=1;endArrow=ERzeroToMany;endFill=1;rounded=0;exitX=0.5;exitY=0;exitDx=0;exitDy=0;entryX=0;entryY=0.5;entryDx=0;entryDy=0;" edge="1" parent="1" source="36" target="35">
                    <mxGeometry width="100" height="100" relative="1" as="geometry">
                        <mxPoint x="170" y="760" as="sourcePoint"/>
                        <mxPoint x="270" y="660" as="targetPoint"/>
                        <Array as="points">
                            <mxPoint x="190" y="720"/>
                        </Array>
                    </mxGeometry>
                </mxCell>
                <mxCell id="42" style="edgeStyle=none;rounded=0;html=1;exitX=1;exitY=0.5;exitDx=0;exitDy=0;entryX=0;entryY=0.5;entryDx=0;entryDy=0;endArrow=none;endFill=0;" edge="1" parent="1" source="40" target="36">
                    <mxGeometry relative="1" as="geometry"/>
                </mxCell>
                <mxCell id="40" value="Id" style="ellipse;whiteSpace=wrap;html=1;align=center;fontStyle=4;" vertex="1" parent="1">
                    <mxGeometry x="20" y="720" width="100" height="40" as="geometry"/>
                </mxCell>
                <mxCell id="43" style="edgeStyle=none;rounded=0;html=1;exitX=1;exitY=0.5;exitDx=0;exitDy=0;entryX=0;entryY=1;entryDx=0;entryDy=0;endArrow=none;endFill=0;" edge="1" parent="1" source="41" target="36">
                    <mxGeometry relative="1" as="geometry"/>
                </mxCell>
                <mxCell id="41" value="&lt;div&gt;Descrição&lt;/div&gt;" style="ellipse;whiteSpace=wrap;html=1;align=center;" vertex="1" parent="1">
                    <mxGeometry x="10" y="780" width="100" height="40" as="geometry"/>
                </mxCell>
            </root>
        </mxGraphModel>
    </diagram>
</mxfile>